<svg width="112" height="130" viewBox="0 0 112 130" fill="none" xmlns="http://www.w3.org/2000/svg">
<path d="M50.9767 82.093H110V88.093C110 110.184 92.0914 128.093 70 128.093H42C19.9086 128.093 2 110.184 2 88.093V82.093H28.7907" stroke="#808080" stroke-width="3"/>
<path d="M31 74.593H48C49.933 74.593 51.5 76.16 51.5 78.093V98.593H27.5V78.093C27.5 76.16 29.067 74.593 31 74.593Z" stroke="#808080" stroke-width="3"/>
<path d="M90.0024 27.8522L69.482 10.8174C74.0963 6.42116 81.3746 6.08003 86.3985 10.2506L87.4463 11.1203C92.4701 15.2909 93.4743 22.5076 90.0024 27.8522Z" stroke="#808080" stroke-width="3"/>
<path d="M103 83.093V17.5979C103 10.6884 95.5363 6.35595 89.5364 9.78282L88 10.6603" stroke="#808080" stroke-width="3"/>
<path d="M74.0117 26.1433L65.4159 35.2986" stroke="#808080" stroke-width="3" stroke-linecap="round"/>
<path d="M83.0938 30.1395L77.3488 41.3066" stroke="#808080" stroke-width="3" stroke-linecap="round"/>
<path d="M67.373 18.4186L57.256 25.8585" stroke="#808080" stroke-width="3" stroke-linecap="round"/>
</svg>
