<svg width="113" height="114" viewBox="0 0 113 114" fill="none" xmlns="http://www.w3.org/2000/svg">
<mask id="path-1-inside-1_108_168" fill="white">
<path d="M13 68H113V114H13V68Z"/>
</mask>
<path d="M113 114V119H118V114H113ZM13 114H8V119H13V114ZM108 68V114H118V68H108ZM113 109H13V119H113V109ZM18 114V68H8V114H18Z" fill="#808080" mask="url(#path-1-inside-1_108_168)"/>
<line x1="13" y1="66.5" x2="113" y2="66.5" stroke="#808080" stroke-width="3"/>
<line x1="41" y1="34.5" x2="113" y2="34.5" stroke="#808080" stroke-width="5"/>
<rect x="52" y="91" width="21" height="18" stroke="#808080" stroke-width="2"/>
<rect x="83" y="77" width="17" height="12" stroke="#808080" stroke-width="2"/>
<rect x="69" y="41" width="31" height="12" stroke="#808080" stroke-width="2"/>
<rect x="25" y="77" width="17" height="12" stroke="#808080" stroke-width="2"/>
<rect x="52" y="86" width="21" height="5" stroke="#808080" stroke-width="2"/>
<line x1="62.5" y1="90" x2="62.5" y2="110" stroke="#808080"/>
<line x1="84.5" y1="41" x2="84.5" y2="53" stroke="#808080"/>
<line x1="64.5" y1="100" x2="64.5" y2="101" stroke="#808080"/>
<line x1="60.5" y1="100" x2="60.5" y2="101" stroke="#808080"/>
<line x1="43.5" y1="37" x2="43.5" y2="65" stroke="#808080" stroke-width="5"/>
<line x1="14" y1="49" x2="14" y2="65" stroke="#808080" stroke-width="2"/>
<line x1="20.5" y1="49" x2="20.5" y2="65" stroke="#808080"/>
<line x1="34.5" y1="49" x2="34.5" y2="65" stroke="#808080"/>
<line x1="27.5" y1="49" x2="27.5" y2="65" stroke="#808080"/>
<line x1="13" y1="50" x2="44" y2="50" stroke="#808080" stroke-width="2"/>
<line x1="110.5" y1="37" x2="110.5" y2="65" stroke="#808080" stroke-width="5"/>
<circle cx="17.2351" cy="17.6711" r="7.31565" stroke="#808080" stroke-width="2"/>
<path d="M33.5501 18.2751C34.1024 18.2751 34.5501 17.8274 34.5501 17.2751C34.5501 16.7229 34.1024 16.2751 33.5501 16.2751V18.2751ZM27.2144 18.2751H33.5501V16.2751H27.2144V18.2751Z" fill="#808080"/>
<path d="M1.0002 16.2751C0.44792 16.2751 0.000204706 16.7229 0.000204706 17.2751C0.000204706 17.8274 0.44792 18.2751 1.0002 18.2751V16.2751ZM7.33594 16.2751H1.0002V18.2751H7.33594V16.2751Z" fill="#808080"/>
<path d="M16.2754 33.5503C16.2754 34.1026 16.7231 34.5503 17.2754 34.5503C17.8277 34.5503 18.2754 34.1026 18.2754 33.5503L16.2754 33.5503ZM16.2754 27.2146L16.2754 33.5503L18.2754 33.5503L18.2754 27.2146L16.2754 27.2146Z" fill="#808080"/>
<path d="M18.2754 0.999999C18.2754 0.447714 17.8277 -1.26309e-06 17.2754 -1.28723e-06C16.7231 -1.31137e-06 16.2754 0.447714 16.2754 0.999999L18.2754 0.999999ZM18.2754 7.33573L18.2754 0.999999L16.2754 0.999999L16.2754 7.33573L18.2754 7.33573Z" fill="#808080"/>
<path d="M27.4366 28.9305C27.8271 29.321 28.4602 29.321 28.8508 28.9305C29.2413 28.54 29.2413 27.9068 28.8508 27.5163L27.4366 28.9305ZM23.5165 25.0105L27.4366 28.9305L28.8508 27.5163L24.9307 23.5963L23.5165 25.0105Z" fill="#808080"/>
<path d="M6.95406 5.61978C6.56354 5.22926 5.93037 5.22926 5.53985 5.61978C5.14933 6.01031 5.14933 6.64347 5.53985 7.034L6.95406 5.61978ZM10.8741 9.53982L6.95406 5.61978L5.53985 7.034L9.45989 10.954L10.8741 9.53982Z" fill="#808080"/>
<path d="M28.8508 7.0339C29.2413 6.64338 29.2413 6.01021 28.8508 5.61969C28.4602 5.22916 27.8271 5.22916 27.4366 5.61969L28.8508 7.0339ZM24.9307 10.9539L28.8508 7.0339L27.4366 5.61969L23.5165 9.53972L24.9307 10.9539Z" fill="#808080"/>
<path d="M5.53985 27.5164C5.14933 27.9069 5.14933 28.5401 5.53985 28.9306C5.93038 29.3211 6.56354 29.3211 6.95406 28.9306L5.53985 27.5164ZM9.45989 23.5964L5.53985 27.5164L6.95406 28.9306L10.8741 25.0106L9.45989 23.5964Z" fill="#808080"/>
</svg>
