<svg width="120" height="149" viewBox="0 0 120 149" fill="none" xmlns="http://www.w3.org/2000/svg">
<rect x="34" y="31" width="19" height="116" stroke="#808080" stroke-width="4"/>
<path d="M72 122V147H53V101.094C63.6599 102.101 72 111.077 72 122Z" stroke="#808080" stroke-width="4"/>
<path d="M18 119C18 109.735 25.0001 102.105 34 101.11V147H18V119Z" stroke="#808080" stroke-width="4"/>
<path d="M2 31L2 22.1303L43.523 17.0123L118 24.4693V31L2 31Z" stroke="#808080" stroke-width="4"/>
<line x1="33" y1="87.5" x2="54" y2="87.5" stroke="#808080"/>
<line x1="33" y1="55.5" x2="54" y2="55.5" stroke="#808080"/>
<line x1="35.5" y1="33" x2="35.5" y2="18" stroke="#808080"/>
<line x1="43.5" y1="16" x2="43.5" y2="1" stroke="#808080"/>
<line x1="51.5" y1="33" x2="51.5" y2="18" stroke="#808080"/>
<line x1="79.5" y1="33" x2="79.5" y2="21" stroke="#808080"/>
<line x1="112.5" y1="79" x2="112.5" y2="29" stroke="#808080"/>
<line x1="33" y1="119.5" x2="54" y2="119.5" stroke="#808080"/>
<path d="M112.065 79C116.097 79.4749 118.888 82.0201 118.997 85.3223C119.109 88.7283 116.264 92.1349 112.065 91.9959C109.157 91.8996 107.056 90.6828 106 88.4835" stroke="#808080"/>
<path d="M119.5 23L43.5 1L0.5 20.5" stroke="#808080"/>
</svg>
