<svg width="154" height="136" viewBox="0 0 154 136" fill="none" xmlns="http://www.w3.org/2000/svg">
<rect x="3.5" y="43.5" width="147" height="90" stroke="#B6B6B6" stroke-width="5"/>
<line x1="2.23223" y1="43.2322" x2="43.2444" y2="2.22004" stroke="#B6B6B6" stroke-width="5"/>
<line x1="110.768" y1="2.23223" x2="151.78" y2="43.2444" stroke="#602C23" stroke-width="5"/>
<line x1="6" y1="85" x2="148" y2="85" stroke="#B6B6B6" stroke-width="2"/>
<line x1="77.5" y1="131" x2="77.5" y2="3" stroke="#602C23" stroke-width="5"/>
<line x1="150.5" y1="131" x2="150.5" y2="46" stroke="#602C23" stroke-width="5"/>
<line x1="41" y1="2.5" x2="113" y2="2.5" stroke="#B6B6B6" stroke-width="5"/>
<line x1="60" y1="119.5" x2="62" y2="119.5" stroke="#B6B6B6"/>
<line x1="93" y1="119.5" x2="95" y2="119.5" stroke="#602C23"/>
<rect x="49" y="103" width="17" height="30" stroke="#B6B6B6" stroke-width="2"/>
<rect x="89" y="103" width="17" height="30" stroke="#602C23" stroke-width="2"/>
<rect x="13" y="103" width="22" height="11" stroke="#B6B6B6" stroke-width="2"/>
<rect x="119" y="103" width="22" height="11" stroke="#602C23" stroke-width="2"/>
<rect x="13" y="53" width="30" height="13" stroke="#B6B6B6" stroke-width="2"/>
<rect x="111" y="53" width="30" height="13" stroke="#602C23" stroke-width="2"/>
<rect x="53" y="53" width="13" height="13" stroke="#B6B6B6" stroke-width="2"/>
<rect x="89" y="53" width="13" height="13" stroke="#602C23" stroke-width="2"/>
<line x1="75" y1="2.5" x2="113" y2="2.5" stroke="#602C23" stroke-width="5"/>
<line x1="75" y1="43.5" x2="153" y2="43.5" stroke="#602C23" stroke-width="5"/>
<line x1="75" y1="133.5" x2="153" y2="133.5" stroke="#602C23" stroke-width="5"/>
<line x1="75" y1="85" x2="153" y2="85" stroke="#602C23" stroke-width="2"/>
</svg>
