<svg width="160" height="145" viewBox="0 0 160 145" fill="none" xmlns="http://www.w3.org/2000/svg">
<rect x="3.5" y="52.5" width="94" height="90" stroke="#602C23" stroke-width="5"/>
<rect x="97.5" y="103.5" width="60" height="39" stroke="#602C23" stroke-width="5"/>
<line x1="2.23223" y1="52.2322" x2="52.2322" y2="2.23223" stroke="#602C23" stroke-width="5"/>
<line x1="48.7678" y1="2.23223" x2="98.7678" y2="52.2322" stroke="#602C23" stroke-width="5"/>
<line x1="100" y1="111.5" x2="155" y2="111.5" stroke="#602C23"/>
<line x1="6" y1="94" x2="96" y2="94" stroke="#602C23" stroke-width="2"/>
<line x1="100" y1="118.5" x2="155" y2="118.5" stroke="#602C23"/>
<line x1="100" y1="125.5" x2="155" y2="125.5" stroke="#602C23"/>
<line x1="100" y1="133.5" x2="155" y2="133.5" stroke="#602C23"/>
<line x1="127" y1="131.5" x2="129" y2="131.5" stroke="#602C23"/>
<line x1="57" y1="128.5" x2="59" y2="128.5" stroke="#602C23"/>
<rect x="46" y="112" width="17" height="30" stroke="#602C23" stroke-width="2"/>
<rect x="12" y="112" width="22" height="11" stroke="#602C23" stroke-width="2"/>
<rect x="75" y="112" width="10" height="11" stroke="#602C23" stroke-width="2"/>
<rect x="12" y="62" width="30" height="13" stroke="#602C23" stroke-width="2"/>
<rect x="59" y="62" width="30" height="13" stroke="#602C23" stroke-width="2"/>
</svg>
