<svg width="87" height="120" viewBox="0 0 87 120" fill="none" xmlns="http://www.w3.org/2000/svg">
<rect x="1.5" y="30.5" width="84" height="88" stroke="#808080" stroke-width="3"/>
<circle cx="25" cy="53" r="8" stroke="#808080" stroke-width="2"/>
<circle cx="62" cy="53" r="8" stroke="#808080" stroke-width="2"/>
<path d="M30 61H20C15.5817 61 12 64.5817 12 69V81.5C12 82.0523 12.4477 82.5 13 82.5H17L18.3951 107.611C18.4539 108.671 19.3305 109.5 20.392 109.5H30.108C31.1695 109.5 32.0461 108.671 32.1049 107.611L33.5 82.5H37C37.5523 82.5 38 82.0523 38 81.5V69C38 64.5817 34.4183 61 30 61Z" stroke="#808080" stroke-width="2"/>
<path d="M67 61H57C52.5817 61 49 64.5817 49 69V81.5C49 82.0523 49.4477 82.5 50 82.5H54L55.3951 107.611C55.4539 108.671 56.3305 109.5 57.392 109.5H67.108C68.1695 109.5 69.0461 108.671 69.1049 107.611L70.5 82.5H74C74.5523 82.5 75 82.0523 75 81.5V69C75 64.5817 71.4183 61 67 61Z" stroke="#808080" stroke-width="2"/>
<path d="M26.5 2C26.5 1.17157 25.8284 0.5 25 0.5C24.1716 0.5 23.5 1.17157 23.5 2H26.5ZM23.9393 23.0607C24.5251 23.6464 25.4749 23.6464 26.0607 23.0607L35.6066 13.5147C36.1924 12.9289 36.1924 11.9792 35.6066 11.3934C35.0208 10.8076 34.0711 10.8076 33.4853 11.3934L25 19.8787L16.5147 11.3934C15.9289 10.8076 14.9792 10.8076 14.3934 11.3934C13.8076 11.9792 13.8076 12.9289 14.3934 13.5147L23.9393 23.0607ZM23.5 2V22H26.5V2H23.5Z" fill="#808080"/>
<path d="M60.5 22C60.5 22.8284 61.1716 23.5 62 23.5C62.8284 23.5 63.5 22.8284 63.5 22H60.5ZM63.0607 0.93934C62.4749 0.353553 61.5251 0.353553 60.9393 0.93934L51.3934 10.4853C50.8076 11.0711 50.8076 12.0208 51.3934 12.6066C51.9792 13.1924 52.9289 13.1924 53.5147 12.6066L62 4.12132L70.4853 12.6066C71.0711 13.1924 72.0208 13.1924 72.6066 12.6066C73.1924 12.0208 73.1924 11.0711 72.6066 10.4853L63.0607 0.93934ZM63.5 22V2H60.5V22H63.5Z" fill="#808080"/>
</svg>
