<svg width="160" height="180" viewBox="0 0 160 180" fill="none" xmlns="http://www.w3.org/2000/svg">
<path d="M40 57.4721L46.6294 77.8754C47.1649 79.5235 48.7007 80.6393 50.4336 80.6393H71.8869L54.5309 93.2492C53.1289 94.2678 52.5423 96.0733 53.0778 97.7214L59.7072 118.125L42.3511 105.515C40.9492 104.496 39.0508 104.496 37.6489 105.515L20.2928 118.125L26.9222 97.7214C27.4577 96.0733 26.8711 94.2678 25.4691 93.2492L8.11311 80.6393H29.5664C31.2993 80.6393 32.8351 79.5235 33.3706 77.8754L40 57.4721Z" stroke="#602C23" stroke-width="4"/>
<path d="M80 6.47214L86.6294 26.8754C87.1649 28.5235 88.7007 29.6393 90.4336 29.6393H111.887L94.5309 42.2492C93.1289 43.2678 92.5423 45.0733 93.0778 46.7214L99.7072 67.1246L82.3511 54.5147C80.9492 53.4961 79.0508 53.4961 77.6489 54.5147L60.2928 67.1246L66.9222 46.7214C67.4577 45.0733 66.8711 43.2678 65.4691 42.2492L48.1131 29.6393H69.5664C71.2993 29.6393 72.8351 28.5235 73.3706 26.8754L80 6.47214Z" stroke="#602C23" stroke-width="4"/>
<path d="M80 106.472L86.6294 126.875C87.1649 128.523 88.7007 129.639 90.4336 129.639H111.887L94.5309 142.249C93.1289 143.268 92.5423 145.073 93.0778 146.721L99.7072 167.125L82.3511 154.515C80.9492 153.496 79.0508 153.496 77.6489 154.515L60.2928 167.125L66.9222 146.721C67.4577 145.073 66.8711 143.268 65.4691 142.249L48.1131 129.639H69.5664C71.2993 129.639 72.8351 128.523 73.3706 126.875L80 106.472Z" stroke="#602C23" stroke-width="4"/>
<path d="M120 57.4721L126.629 77.8754C127.165 79.5235 128.701 80.6393 130.434 80.6393H151.887L134.531 93.2492C133.129 94.2678 132.542 96.0733 133.078 97.7214L139.707 118.125L122.351 105.515C120.949 104.496 119.051 104.496 117.649 105.515L100.293 118.125L106.922 97.7214C107.458 96.0733 106.871 94.2678 105.469 93.2492L88.1131 80.6393H109.566C111.299 80.6393 112.835 79.5235 113.371 77.8754L120 57.4721Z" stroke="#602C23" stroke-width="4"/>
</svg>
