<svg width="127" height="127" viewBox="0 0 127 127" fill="none" xmlns="http://www.w3.org/2000/svg">
<rect x="22.5" y="22.5" width="102" height="102" stroke="#808080" stroke-width="3"/>
<line x1="59" y1="24" x2="59" y2="68" stroke="#808080" stroke-width="2"/>
<line x1="79" y1="67" x2="123" y2="67" stroke="#808080" stroke-width="2"/>
<path d="M20.2929 7.29289C19.9024 7.68342 19.9024 8.31658 20.2929 8.70711L26.6569 15.0711C27.0474 15.4616 27.6805 15.4616 28.0711 15.0711C28.4616 14.6805 28.4616 14.0474 28.0711 13.6569L22.4142 8L28.0711 2.34315C28.4616 1.95262 28.4616 1.31946 28.0711 0.928932C27.6805 0.538408 27.0474 0.538408 26.6569 0.928932L20.2929 7.29289ZM126.707 8.70711C127.098 8.31658 127.098 7.68342 126.707 7.29289L120.343 0.928932C119.953 0.538408 119.319 0.538408 118.929 0.928932C118.538 1.31946 118.538 1.95262 118.929 2.34315L124.586 8L118.929 13.6569C118.538 14.0474 118.538 14.6805 118.929 15.0711C119.319 15.4616 119.953 15.4616 120.343 15.0711L126.707 8.70711ZM21 9H126V7H21V9Z" fill="#808080"/>
<path d="M7.29289 126.707C7.68342 127.098 8.31658 127.098 8.70711 126.707L15.0711 120.343C15.4616 119.953 15.4616 119.319 15.0711 118.929C14.6805 118.538 14.0474 118.538 13.6569 118.929L8 124.586L2.34315 118.929C1.95262 118.538 1.31946 118.538 0.928932 118.929C0.538408 119.319 0.538408 119.953 0.928932 120.343L7.29289 126.707ZM8.70711 20.2929C8.31658 19.9024 7.68342 19.9024 7.29289 20.2929L0.928932 26.6569C0.538408 27.0474 0.538408 27.6805 0.928932 28.0711C1.31946 28.4616 1.95262 28.4616 2.34315 28.0711L8 22.4142L13.6569 28.0711C14.0474 28.4616 14.6805 28.4616 15.0711 28.0711C15.4616 27.6805 15.4616 27.0474 15.0711 26.6569L8.70711 20.2929ZM9 126L9 21H7L7 126H9Z" fill="#808080"/>
<line x1="59" y1="67" x2="64" y2="67" stroke="#808080" stroke-width="2"/>
<line x1="79" y1="85" x2="125" y2="85" stroke="#808080" stroke-width="2"/>
<line x1="23" y1="85" x2="64" y2="85" stroke="#808080" stroke-width="2"/>
<line x1="63" y1="125.5" x2="63" y2="104.5" stroke="#808080" stroke-width="2"/>
<line x1="81" y1="125.5" x2="81" y2="104.5" stroke="#808080" stroke-width="2"/>
<line x1="63" y1="91" x2="63" y2="86" stroke="#808080" stroke-width="2"/>
<line x1="80" y1="91" x2="80" y2="86" stroke="#808080" stroke-width="2"/>
</svg>
