<svg width="133" height="127" viewBox="0 0 133 127" fill="none" xmlns="http://www.w3.org/2000/svg">
<path d="M131.707 8.70711C132.098 8.31658 132.098 7.68342 131.707 7.29289L125.343 0.928932C124.953 0.538408 124.319 0.538408 123.929 0.928932C123.538 1.31946 123.538 1.95262 123.929 2.34315L129.586 8L123.929 13.6569C123.538 14.0474 123.538 14.6805 123.929 15.0711C124.319 15.4616 124.953 15.4616 125.343 15.0711L131.707 8.70711ZM8 9H131V7H8V9Z" fill="#808080"/>
<path d="M7.29289 126.707C7.68342 127.098 8.31658 127.098 8.70711 126.707L15.0711 120.343C15.4616 119.953 15.4616 119.319 15.0711 118.929C14.6805 118.538 14.0474 118.538 13.6569 118.929L8 124.586L2.34315 118.929C1.95262 118.538 1.31946 118.538 0.928932 118.929C0.538408 119.319 0.538408 119.953 0.928932 120.343L7.29289 126.707ZM9 126L9 7H7L7 126H9Z" fill="#808080"/>
<line x1="132" y1="9" x2="132" y2="125" stroke="#808080" stroke-width="2" stroke-linecap="round" stroke-dasharray="6 6"/>
<line x1="9" y1="125" x2="131" y2="125" stroke="#808080" stroke-width="2" stroke-linecap="round" stroke-dasharray="6 6"/>
</svg>
