<svg width="100" height="139" viewBox="0 0 100 139" fill="none" xmlns="http://www.w3.org/2000/svg">
<rect x="2.5" y="2.5" width="95" height="134" stroke="#602C23" stroke-width="5"/>
<line y1="33.5" x2="100" y2="33.5" stroke="#602C23" stroke-width="3"/>
<line y1="63.5" x2="100" y2="63.5" stroke="#602C23" stroke-width="3"/>
<line y1="93.5" x2="100" y2="93.5" stroke="#602C23" stroke-width="3"/>
<rect x="39" y="116" width="21" height="18" stroke="#602C23" stroke-width="2"/>
<rect x="70" y="102" width="17" height="12" stroke="#602C23" stroke-width="2"/>
<rect x="56" y="69" width="31" height="12" stroke="#602C23" stroke-width="2"/>
<rect x="56" y="9" width="31" height="12" stroke="#602C23" stroke-width="2"/>
<rect x="56" y="39" width="31" height="12" stroke="#602C23" stroke-width="2"/>
<rect x="12" y="69" width="31" height="12" stroke="#602C23" stroke-width="2"/>
<rect x="12" y="9" width="31" height="12" stroke="#602C23" stroke-width="2"/>
<rect x="12" y="39" width="31" height="12" stroke="#602C23" stroke-width="2"/>
<rect x="12" y="102" width="17" height="12" stroke="#602C23" stroke-width="2"/>
<rect x="39" y="111" width="21" height="5" stroke="#602C23" stroke-width="2"/>
<line x1="49.5" y1="115" x2="49.5" y2="135" stroke="#602C23"/>
<line x1="71.5" y1="69" x2="71.5" y2="81" stroke="#602C23"/>
<line x1="71.5" y1="39" x2="71.5" y2="51" stroke="#602C23"/>
<line x1="71.5" y1="9" x2="71.5" y2="21" stroke="#602C23"/>
<line x1="27.5" y1="69" x2="27.5" y2="81" stroke="#602C23"/>
<line x1="27.5" y1="39" x2="27.5" y2="51" stroke="#602C23"/>
<line x1="27.5" y1="9" x2="27.5" y2="21" stroke="#602C23"/>
<line x1="51.5" y1="125" x2="51.5" y2="126" stroke="#602C23"/>
<line x1="47.5" y1="125" x2="47.5" y2="126" stroke="#602C23"/>
</svg>
