<svg width="150" height="107" viewBox="0 0 150 107" fill="none" xmlns="http://www.w3.org/2000/svg">
<path d="M65.0063 20.7468L64.4078 22.8415C62.9778 27.8467 60.5397 32.5068 57.2434 36.5356L44.5793 52.014C27.9262 72.3678 43.9396 102.734 70.1419 100.488V100.488C71.7868 100.347 73.445 100.344 75.0904 100.477V100.477C102.772 102.721 119.657 70.5754 101.954 49.1766L90.053 34.7903C87.6598 31.8974 85.6937 28.6764 84.2148 25.2255L82.2953 20.7468" stroke="#808080" stroke-width="3"/>
<path d="M65.0063 22.1299L55.9284 8.2741C54.8091 6.56567 56.6689 4.47579 58.4957 5.3892L67.7449 10.0138C68.8471 10.5649 70.1807 9.99771 70.5483 8.82148L71.182 6.79356C71.7847 4.86491 74.5412 4.94474 75.0313 6.90504L75.4211 8.46455C75.7455 9.76206 77.2274 10.3817 78.3789 9.70133L85.8699 5.27482C87.549 4.28261 89.5102 6.03506 88.7124 7.81478L82.2953 22.1299" stroke="#808080" stroke-width="3"/>
<path d="M59.4741 22.8214H87.1365" stroke="#808080" stroke-width="3" stroke-linecap="round"/>
<path d="M83.6785 54.6331H66.2402C64.0311 54.6331 62.2402 56.424 62.2402 58.6331V64.4643C62.2402 66.6734 64.0311 68.4643 66.2402 68.4643H81.0617C83.2708 68.4643 85.0617 70.2551 85.0617 72.4643V79.6786C85.0617 81.8877 83.2708 83.6786 81.0617 83.6786H63.6234" stroke="#808080" stroke-width="3" stroke-linecap="round"/>
<path d="M74.8052 50.4838C74.8052 49.6553 74.1336 48.9838 73.3052 48.9838C72.4767 48.9838 71.8052 49.6553 71.8052 50.4838H74.8052ZM74.8052 53.25V50.4838H71.8052V53.25H74.8052Z" fill="#808080"/>
<path d="M71.8052 87.8279C71.8052 88.6563 72.4767 89.3279 73.3052 89.3279C74.1336 89.3279 74.8052 88.6563 74.8052 87.8279H71.8052ZM74.8052 87.8279V85.0617H71.8052V87.8279H74.8052Z" fill="#808080"/>
</svg>
