<svg width="210" height="136" viewBox="0 0 210 136" fill="none" xmlns="http://www.w3.org/2000/svg">
<rect x="3.5" y="43.5" width="203" height="90" stroke="#B6B6B6" stroke-width="5"/>
<line x1="2.23223" y1="43.2444" x2="43.2444" y2="2.23223" stroke="#B6B6B6" stroke-width="5"/>
<line x1="166.768" y1="2.24441" x2="207.78" y2="43.2566" stroke="#602C23" stroke-width="5"/>
<line x1="6" y1="85.0122" x2="206" y2="85.0122" stroke="#B6B6B6" stroke-width="2"/>
<line x1="67.5" y1="131" x2="67.5" y2="2.99998" stroke="#B6B6B6" stroke-width="5"/>
<line x1="135.5" y1="131" x2="135.5" y2="2.99998" stroke="#602C23" stroke-width="5"/>
<line x1="206.5" y1="131" x2="206.5" y2="42" stroke="#602C23" stroke-width="5"/>
<line x1="134" y1="43.5" x2="205" y2="43.5" stroke="#602C23" stroke-width="5"/>
<line x1="41" y1="2.49998" x2="169" y2="2.49998" stroke="#B6B6B6" stroke-width="5"/>
<line x1="47" y1="117.5" x2="49" y2="117.5" stroke="#B6B6B6"/>
<line x1="115" y1="117.5" x2="117" y2="117.5" stroke="#B6B6B6"/>
<line x1="183" y1="117.5" x2="185" y2="117.5" stroke="#602C23"/>
<rect x="36" y="103.012" width="17" height="30" stroke="#B6B6B6" stroke-width="2"/>
<rect x="104" y="103.012" width="17" height="30" stroke="#B6B6B6" stroke-width="2"/>
<rect x="172" y="103" width="17" height="30" stroke="#602C23" stroke-width="2"/>
<rect x="14" y="103" width="13" height="13" stroke="#B6B6B6" stroke-width="2"/>
<rect x="14" y="53" width="41" height="14" stroke="#B6B6B6" stroke-width="2"/>
<rect x="82" y="103" width="13" height="13" stroke="#B6B6B6" stroke-width="2"/>
<rect x="82" y="53" width="41" height="14" stroke="#B6B6B6" stroke-width="2"/>
<rect x="150" y="103" width="13" height="13" stroke="#602C23" stroke-width="2"/>
<rect x="150" y="53" width="41" height="14" stroke="#602C23" stroke-width="2"/>
<line x1="133" y1="2.5" x2="169" y2="2.5" stroke="#602C23" stroke-width="5"/>
<line x1="133" y1="133.5" x2="209" y2="133.5" stroke="#602C23" stroke-width="5"/>
<line x1="133" y1="85" x2="209" y2="85" stroke="#602C23" stroke-width="2"/>
</svg>
