<svg width="160" height="140" viewBox="0 0 160 140" fill="none" xmlns="http://www.w3.org/2000/svg">
<path d="M40 66.4721L46.6294 86.8754C47.1649 88.5235 48.7007 89.6393 50.4336 89.6393H71.8869L54.5309 102.249C53.1289 103.268 52.5423 105.073 53.0778 106.721L59.7072 127.125L42.3511 114.515C40.9492 113.496 39.0508 113.496 37.6489 114.515L20.2928 127.125L26.9222 106.721C27.4577 105.073 26.8711 103.268 25.4691 102.249L8.11311 89.6393H29.5664C31.2993 89.6393 32.8351 88.5235 33.3706 86.8754L40 66.4721Z" stroke="#602C23" stroke-width="4"/>
<path d="M80 6.47214L86.6294 26.8754C87.1649 28.5235 88.7007 29.6393 90.4336 29.6393H111.887L94.5309 42.2492C93.1289 43.2678 92.5423 45.0733 93.0778 46.7214L99.7072 67.1246L82.3511 54.5147C80.9492 53.4961 79.0508 53.4961 77.6489 54.5147L60.2928 67.1246L66.9222 46.7214C67.4577 45.0733 66.8711 43.2678 65.4691 42.2492L48.1131 29.6393H69.5664C71.2993 29.6393 72.8351 28.5235 73.3706 26.8754L80 6.47214Z" stroke="#602C23" stroke-width="4"/>
<path d="M120 66.4721L126.629 86.8754C127.165 88.5235 128.701 89.6393 130.434 89.6393H151.887L134.531 102.249C133.129 103.268 132.542 105.073 133.078 106.721L139.707 127.125L122.351 114.515C120.949 113.496 119.051 113.496 117.649 114.515L100.293 127.125L106.922 106.721C107.458 105.073 106.871 103.268 105.469 102.249L88.1131 89.6393H109.566C111.299 89.6393 112.835 88.5235 113.371 86.8754L120 66.4721Z" stroke="#602C23" stroke-width="4"/>
</svg>
