<svg width="160" height="80" viewBox="0 0 160 80" fill="none" xmlns="http://www.w3.org/2000/svg">
<path d="M40 6.47214L46.6294 26.8754C47.1649 28.5235 48.7007 29.6393 50.4336 29.6393H71.8869L54.5309 42.2492C53.1289 43.2678 52.5423 45.0733 53.0778 46.7214L59.7072 67.1246L42.3511 54.5147C40.9492 53.4961 39.0508 53.4961 37.6489 54.5147L20.2928 67.1246L26.9222 46.7214C27.4577 45.0733 26.8711 43.2678 25.4691 42.2492L8.11311 29.6393H29.5664C31.2993 29.6393 32.8351 28.5235 33.3706 26.8754L40 6.47214Z" stroke="#602C23" stroke-width="4"/>
<path d="M120 6.47214L126.629 26.8754C127.165 28.5235 128.701 29.6393 130.434 29.6393H151.887L134.531 42.2492C133.129 43.2678 132.542 45.0733 133.078 46.7214L139.707 67.1246L122.351 54.5147C120.949 53.4961 119.051 53.4961 117.649 54.5147L100.293 67.1246L106.922 46.7214C107.458 45.0733 106.871 43.2678 105.469 42.2492L88.1131 29.6393H109.566C111.299 29.6393 112.835 28.5235 113.371 26.8754L120 6.47214Z" stroke="#602C23" stroke-width="4"/>
</svg>
